<?xml version="1.0" encoding="UTF-8" standalone="no"?>
<svg
   xmlns:dc="http://purl.org/dc/elements/1.1/"
   xmlns:cc="http://creativecommons.org/ns#"
   xmlns:rdf="http://www.w3.org/1999/02/22-rdf-syntax-ns#"
   xmlns:svg="http://www.w3.org/2000/svg"
   xmlns="http://www.w3.org/2000/svg"
   xmlns:sodipodi="http://sodipodi.sourceforge.net/DTD/sodipodi-0.dtd"
   xmlns:inkscape="http://www.inkscape.org/namespaces/inkscape"
   inkscape:version="1.0 (4035a4fb49, 2020-05-01)"
   sodipodi:docname="Salts.svg"
   id="svg14"
   version="1.1"
   viewBox="0 0 348 348"
   fill="none">
  <metadata
     id="metadata20">
    <rdf:RDF>
      <cc:Work
         rdf:about="">
        <dc:format>image/svg+xml</dc:format>
        <dc:type
           rdf:resource="http://purl.org/dc/dcmitype/StillImage" />
        <dc:title></dc:title>
      </cc:Work>
    </rdf:RDF>
  </metadata>
  <defs
     id="defs18" />
  <sodipodi:namedview
     inkscape:current-layer="svg14"
     inkscape:window-maximized="1"
     inkscape:window-y="-9"
     inkscape:window-x="2391"
     inkscape:cy="166.20153"
     inkscape:cx="171.12428"
     inkscape:zoom="1.1925287"
     showgrid="false"
     id="namedview16"
     inkscape:window-height="1001"
     inkscape:window-width="1920"
     inkscape:pageshadow="2"
     inkscape:pageopacity="0"
     guidetolerance="10"
     gridtolerance="10"
     objecttolerance="10"
     borderopacity="1"
     bordercolor="#666666"
     pagecolor="#ffffff" />
  <path
     id="path2"
     d="M5 6h337v337H5z"
     stroke-width="2"
     stroke="#000" />
  <path
     id="path4"
     d="M283 41c0-9 7-16 15-16 4 0 8 2 11 5s5 7 5 11c0 8-7 15-16 15-8 0-15-7-15-15z"
     stroke-width="2"
     stroke="#000" />
  <path
     id="path859"
     d="M 154.62929,8.2455083 C 129.21069,11.602773 105.0567,19.306191 83.211135,32.905212 64.173682,44.75606 47.746129,60.171489 35.185305,78.689918 -25.116796,167.59276 11.871039,295.07495 115.78784,331.82892 c 26.06888,9.22025 54.13119,11.44904 81.44175,7.98508 22.13336,-2.80779 43.35458,-10.93107 62.6475,-21.89949 17.97106,-10.21635 34.2782,-24.95754 46.79267,-41.24767 C 380.04377,181.15481 329.91574,40.008599 212.26499,11.613854 194.09345,7.2283554 173.22432,5.7894734 154.62929,8.2455083 M 298.71853,134.72113 c 21.4455,-5.07394 25.22314,18.61232 2.5059,18.67706 0,15.83941 -2.07738,30.20954 -8.59773,44.82497 -5.87509,13.16857 -15.07174,24.71722 -25.23317,34.86385 -34.68415,34.63475 -74.91012,45.19103 -122.78784,48.44831 -26.08767,1.77557 -50.978406,-0.45198 -76.429956,7.58289 L 91.763271,230.59673 80.705235,172.07526 c -19.561687,-0.066 -21.416805,-20.23598 -1.252951,-21.16734 0.113392,-13.61558 3.68643,-27.64579 9.718131,-39.84441 C 125.40673,37.779179 228.9831,24.375397 279.45443,91.141304 c 9.27308,12.266976 17.89714,28.020576 19.2641,43.579826 m -54.84412,-28.59782 c -8.60777,5.03682 -1.1452,20.41726 7.99132,14.67344 8.07901,-5.07904 0.68285,-19.74863 -7.99132,-14.67344 m -100.236,9.96109 c -8.57143,5.01616 -1.21912,20.68373 7.95999,14.67719 7.83595,-5.12624 0.77308,-19.78674 -7.95999,-14.67719 m 69.87952,6.18535 c -1.84433,16.45325 -16.143,15.26165 -22.5531,2.49027 h -1.25294 c -4.7988,19.79894 32.31608,19.44034 26.31195,-2.49027 h -2.50591 m 100.23601,140.70057 -1.25295,1.24513 1.25295,-1.24513 m -6.26475,8.71596 -2.50591,2.49028 2.50591,-2.49028 m -3.75885,4.98056 -1.25295,1.24513 1.25295,-1.24513 m -7.5177,8.71596 -3.75885,3.73541 3.75885,-3.73541 m -8.77065,8.71596 -1.25295,1.24514 1.25295,-1.24514 m -5.01181,3.73542 -1.25294,1.24514 1.25294,-1.24514 m -7.51769,6.22569 -1.25295,1.24513 z"
     style="fill:#20201f;stroke:none;stroke-width:1.24904" />
</svg>
